<svg xmlns="http://www.w3.org/2000/svg" xmlns:xlink="http://www.w3.org/1999/xlink" width="186" height="32" viewBox="0 0 186 32"><defs><linearGradient id="linear-gradient" x1="0.5" x2="0.169" y2="1" gradientUnits="objectBoundingBox"><stop offset="0" stop-color="#eecdeb"></stop><stop offset="1" stop-color="#e364cb"></stop></linearGradient><linearGradient id="linear-gradient-2" x1="0.656" x2="0.339" y2="1" gradientUnits="objectBoundingBox"><stop offset="0" stop-color="#9181f4"></stop><stop offset="1" stop-color="#5138ee"></stop></linearGradient><linearGradient id="linear-gradient-3" x1="-0.194" y1="0.392" x2="0.802" y2="0.724" gradientUnits="objectBoundingBox"><stop offset="0" stop-color="#fff" stop-opacity="0"></stop><stop offset="0.288" stop-color="#656565" stop-opacity="0"></stop><stop offset="0.353"></stop><stop offset="0.653"></stop><stop offset="0.719" stop-color="#858585" stop-opacity="0"></stop><stop offset="1" stop-color="#fff" stop-opacity="0"></stop></linearGradient></defs><g id="adminuiux-templates" transform="translate(-21 -19)"><path id="Path_6" data-name="Path 6" d="M16,0H12.05L10.9-3.583H5.177L4.043,0H.112L5.975-16.1h4.3Zm-5.93-6.368L8.344-11.781a7.054,7.054,0,0,1-.27-1.449h-.09a6.143,6.143,0,0,1-.281,1.4L5.952-6.368ZM19.394,0V-16.1H25.1q8.58,0,8.58,7.85a7.938,7.938,0,0,1-2.342,6.008A8.634,8.634,0,0,1,25.1,0Zm3.627-13.151V-2.942h1.8a4.855,4.855,0,0,0,3.7-1.415A5.369,5.369,0,0,0,29.86-8.209a4.871,4.871,0,0,0-1.331-3.622,5.074,5.074,0,0,0-3.734-1.32ZM56.082,0H52.5V-9.636q0-1.561.135-3.448h-.09a16.966,16.966,0,0,1-.505,2.134L48.266,0H45.3L41.46-10.837a21.089,21.089,0,0,1-.505-2.246h-.1Q41-10.7,41-8.906V0H37.732V-16.1h5.312l3.291,9.546a13.441,13.441,0,0,1,.573,2.3h.067a23.182,23.182,0,0,1,.64-2.325L50.905-16.1h5.177Zm8.669,0H61.123V-16.1h3.627ZM84.279,0H80.618L73.981-10.119a14.633,14.633,0,0,1-.809-1.336h-.045q.09.854.09,2.605V0H69.792V-16.1H73.7l6.39,9.8q.438.663.809,1.314h.045a17.218,17.218,0,0,1-.09-2.212V-16.1h3.425Zm17.114-6.514q0,6.783-6.121,6.783Q89.41.27,89.41-6.255V-16.1H91.3v9.726q0,4.953,4.178,4.953,4.032,0,4.032-4.784V-16.1h1.887ZM108.68,0h-1.887V-16.1h1.887Zm17.395-6.514q0,6.783-6.121,6.783-5.862,0-5.862-6.525V-16.1h1.887v9.726q0,4.953,4.178,4.953,4.032,0,4.032-4.784V-16.1h1.887ZM142.594,0h-2.3l-3.706-6.166a5.529,5.529,0,0,1-.371-.8h-.045q-.112.258-.382.8L131.97,0h-2.313l5.391-8.1L130.083-16.1H132.4l3.291,5.66a11.356,11.356,0,0,1,.573,1.123h.045a12.4,12.4,0,0,1,.629-1.168l3.425-5.615h2.167L137.461-8.12Z" transform="translate(63 36)"></path><text id="Web_and_Mobile_HTML_template" data-name="Web and Mobile HTML template" transform="translate(63 48)" fill="#707070" font-size="10" font-family="SegoeUI, Segoe UI"><tspan x="0" y="0">Web and Mobile HTML template</tspan></text><g id="logo-light" transform="translate(14 -6)"><path id="Union_1" data-name="Union 1" d="M21.647,32,16,14.545,10.353,32H0L10.353,0H21.647L32,32Z" transform="translate(7 25)" fill="url(#linear-gradient)"></path><path id="Subtraction_2" data-name="Subtraction 2" d="M16,32a16,16,0,0,1-5.352-.913l2.9-8.971A6.589,6.589,0,0,0,22.588,16V0H32V16A16,16,0,0,1,16,32ZM2.43,24.488v0A15.931,15.931,0,0,1,0,16V0H9.41V2.913L2.431,24.486Z" transform="translate(7 25)" fill="url(#linear-gradient-2)"></path><path id="Subtraction_4" data-name="Subtraction 4" d="M16,32a16,16,0,0,1-5.352-.913l2.9-8.971A6.589,6.589,0,0,0,22.588,16V0H32V16A16,16,0,0,1,16,32ZM2.43,24.488v0A15.931,15.931,0,0,1,0,16V0H9.41V2.913L2.431,24.486Z" transform="translate(7 25)" opacity="0.26" fill="url(#linear-gradient-3)"></path><circle id="Ellipse_1" data-name="Ellipse 1" cx="7.5" cy="7.5" r="7.5" transform="translate(16 35)" fill="rgba(255,255,255,0.5)"></circle><path id="Ellipse_1_-_Outline" data-name="Ellipse 1 - Outline" d="M7.5,1A6.5,6.5,0,1,0,14,7.5,6.507,6.507,0,0,0,7.5,1m0-1A7.5,7.5,0,1,1,0,7.5,7.5,7.5,0,0,1,7.5,0Z" transform="translate(16 35)" fill="rgba(255,255,255,0.14)"></path></g></g></svg>